<?xml version="1.0" encoding="UTF-8"?>
<!DOCTYPE svg PUBLIC "-//W3C//DTD SVG 1.1//EN" "http://www.w3.org/Graphics/SVG/1.1/DTD/svg11.dtd">
<svg xmlns="http://www.w3.org/2000/svg" version="1.1" width="672px" height="322px" style="shape-rendering:geometricPrecision; text-rendering:geometricPrecision; image-rendering:optimizeQuality; fill-rule:evenodd; clip-rule:evenodd" xmlns:xlink="http://www.w3.org/1999/xlink">
<g><path style="opacity:1" fill="#fefefe" d="M -0.5,-0.5 C 223.5,-0.5 447.5,-0.5 671.5,-0.5C 671.5,106.833 671.5,214.167 671.5,321.5C 447.5,321.5 223.5,321.5 -0.5,321.5C -0.5,214.167 -0.5,106.833 -0.5,-0.5 Z"/></g>
<g><path style="opacity:1" fill="#000000" d="M 235.5,29.5 C 300.834,29.3333 366.168,29.5 431.5,30C 445.091,31.5417 454.258,38.7084 459,51.5C 460.639,102.135 460.972,152.801 460,203.5C 458.401,218.102 450.568,227.602 436.5,232C 411.167,232.333 385.833,232.667 360.5,233C 341.167,247.667 321.833,262.333 302.5,277C 297.06,280.911 292.56,280.078 289,274.5C 288.5,260.504 288.333,246.504 288.5,232.5C 270.497,232.667 252.497,232.5 234.5,232C 222.236,228.07 214.403,219.903 211,207.5C 210.333,156.167 210.333,104.833 211,53.5C 215.12,41.2122 223.286,33.2122 235.5,29.5 Z"/></g>
<g><path style="opacity:1" fill="#fcfcfc" d="M 313.5,239.5 C 312.833,235.833 312.167,232.167 311.5,228.5C 309.065,218.898 303.065,212.731 293.5,210C 275.5,209.667 257.5,209.333 239.5,209C 236.619,207.749 234.786,205.583 234,202.5C 233.01,153.75 233.343,105.083 235,56.5C 236.319,54.5125 238.152,53.3459 240.5,53C 303.5,52.3333 366.5,52.3333 429.5,53C 433.12,53.2838 435.62,55.1171 437,58.5C 437.986,107.559 437.652,156.559 436,205.5C 434.786,207.049 433.286,208.215 431.5,209C 406.167,209.333 380.833,209.667 355.5,210C 351.6,211.565 347.934,213.565 344.5,216C 334.137,223.842 323.803,231.676 313.5,239.5 Z"/></g>
<g><path style="opacity:1" fill="#818181" d="M 311.5,228.5 C 312.167,232.167 312.833,235.833 313.5,239.5C 313.44,240.043 313.107,240.376 312.5,240.5C 311.509,236.555 311.176,232.555 311.5,228.5 Z"/></g>
</svg>
